PathFileType	4	(X/Y/Z)	/Users/itak/Documents/Research/Walk-IL/dataset/trc/00047_00004.trc
DataRate	CameraRate	NumFrames	NumMarkers	Units	OrigDataRate	OrigDataStartFrame	OrigNumFrames
100.000000	100.000000	4	53	mm	100.000000	0	512
Frame#	Time	RPSI			LPSI			L3			STRN			T10			C7			CLAV			RBAK			LBAK			LSHO			LUPA			LAEL			LAOL			LWTS			LWPS			LFRA			LIFD			LHPS			LHTS			RSHO			RUPA			RAEL			RAOL			RWTS			RWPS			RFRA			RIFD			RHTS			RHPS			RBHD			LFHD			RFHD			LBHD			LHIP			RHIP			RASI			LASI			LKNE			LTHI			LANK			LTIP			LTOE			LMT1			LMT5			LHEE			RKNE			RTHI			RANK			RTIP			RTOE			RMT1			RMT5			RHEE			
		X1	Y1	Z1	X2	Y2	Z2	X3	Y3	Z3	X4	Y4	Z4	X5	Y5	Z5	X6	Y6	Z6	X7	Y7	Z7	X8	Y8	Z8	X9	Y9	Z9	X10	Y10	Z10	X11	Y11	Z11	X12	Y12	Z12	X13	Y13	Z13	X14	Y14	Z14	X15	Y15	Z15	X16	Y16	Z16	X17	Y17	Z17	X18	Y18	Z18	X19	Y19	Z19	X20	Y20	Z20	X21	Y21	Z21	X22	Y22	Z22	X23	Y23	Z23	X24	Y24	Z24	X25	Y25	Z25	X26	Y26	Z26	X27	Y27	Z27	X28	Y28	Z28	X29	Y29	Z29	X30	Y30	Z30	X31	Y31	Z31	X32	Y32	Z32	X33	Y33	Z33	X34	Y34	Z34	X35	Y35	Z35	X36	Y36	Z36	X37	Y37	Z37	X38	Y38	Z38	X39	Y39	Z39	X40	Y40	Z40	X41	Y41	Z41	X42	Y42	Z42	X43	Y43	Z43	X44	Y44	Z44	X45	Y45	Z45	X46	Y46	Z46	X47	Y47	Z47	X48	Y48	Z48	X49	Y49	Z49	X50	Y50	Z50	X51	Y51	Z51	X52	Y52	Z52	X53	Y53	Z53	

1	0	-1218.39306640625	1080.388305664062	247.2189025878906	-1233.568969726562	1069.827514648438	83.44881439208984	-1232.06640625	1129.146240234375	156.1725616455078	-1017.064025878906	1329.0341796875	143.6535339355469	-1262.878173828125	1270.095336914062	153.8302917480469	-1226.589721679688	1540.12744140625	139.3619689941406	-1063.358276367188	1454.432983398438	139.3782806396484	-1269.045532226562	1401.30078125	220.9583740234375	-1246.032592773438	1496.972778320312	41.51997375488281	-1146.4013671875	1508.260375976562	-36.16634750366211	-1173.320434570312	1379.81689453125	-110.5461807250977	-1161.83056640625	1161.6826171875	-135.1977844238281	-1212.864135742188	1147.8515625	-43.06345748901367	-1069.355590820312	909.6800537109375	-83.34909057617188	-1146.53271484375	895.0104370117188	-122.3122024536133	-1146.954345703125	1046.044799804688	-141.5197296142578	-1039.810424804688	726.4856567382812	-64.23982238769531	-1111.926635742188	805.5853881835938	-123.3124618530273	-1046.359130859375	816.888916015625	-96.54535675048828	-1143.709716796875	1527.939819335938	311.5263061523438	-1154.424194335938	1458.5048828125	383.5701904296875	-1182.67138671875	1191.647338867188	416.2752075195312	-1182.526123046875	1161.3759765625	320.5239562988281	-1040.119262695312	939.024169921875	387.5223999023438	-1100.9482421875	921.1945190429688	454.8374633789062	-1166.076538085938	1115.86083984375	433.9790954589844	-1012.888977050781	757.3474731445312	370.5794067382812	-999.8233032226562	832.4785766601562	400.3667602539062	-1052.949462890625	824.3731689453125	453.2055969238281	-1201.373291015625	1726.574584960938	118.3187408447266	-985.2406005859375	1745.141723632812	135.6001586914062	-1035.63232421875	1750.646606445312	51.00795364379883	-1123.21435546875	1717.098510742188	239.520263671875	-1145.139282226562	963.6207885742188	-31.22198677062988	-1099.796630859375	965.8897705078125	339.5261535644531	-1003.20751953125	1000.563720703125	256.6070556640625	-1025.191650390625	1012.889953613281	24.52473831176758	-1095.661376953125	519.1802368164062	26.57229232788086	-1119.246337890625	655.4088745117188	-13.01760864257812	-1188.56884765625	39.95308685302734	38.04565811157227	-1171.348999023438	287.5282287597656	13.34793663024902	-970.2813720703125	41.83940124511719	106.7499084472656	-1028.763671875	52.54005432128906	120.9378280639648	-1065.444702148438	42.57548904418945	20.77546119689941	-1259.383056640625	46.61626434326172	89.07516479492188	-1087.5703125	530.1436157226562	293.0647583007812	-1076.3203125	797.7156372070312	337.639404296875	-1202.0673828125	47.8402099609375	281.7943115234375	-1111.6416015625	406.197021484375	293.9526672363281	-972.49169921875	47.38564300537109	226.9313354492188	-1038.42138671875	50.92583465576172	199.5742797851562	-1051.917846679688	45.32363510131836	295.2626647949219	-1233.2158203125	67.72928619384766	259.5196228027344	
2	0.01	-1218.6875	1080.379150390625	247.1115875244141	-1233.82666015625	1069.850830078125	83.34658050537109	-1232.375366210938	1129.191162109375	156.0254669189453	-1017.262268066406	1328.9873046875	143.6542358398438	-1263.04248046875	1270.139526367188	153.7286376953125	-1226.667358398438	1540.146728515625	139.3169708251953	-1063.471069335938	1454.410888671875	139.3584289550781	-1269.164794921875	1401.343505859375	220.8849792480469	-1246.112426757812	1497.015502929688	41.44041442871094	-1146.429809570312	1508.27685546875	-36.21056747436523	-1173.3291015625	1379.848999023438	-110.6145858764648	-1161.913696289062	1161.714721679688	-135.2922821044922	-1213.004028320312	1147.909545898438	-43.17784881591797	-1069.732666015625	909.5924072265625	-83.55410766601562	-1146.870727539062	895.0267333984375	-122.4987945556641	-1147.16455078125	1046.07958984375	-141.6846618652344	-1040.725219726562	726.0316162109375	-64.70413970947266	-1112.522827148438	805.5873413085938	-123.5959625244141	-1046.955932617188	816.7545166015625	-96.85539245605469	-1143.849853515625	1527.944213867188	311.4932861328125	-1154.590087890625	1458.502563476562	383.5399475097656	-1183.0908203125	1191.635864257812	416.0541687011719	-1182.931274414062	1161.434326171875	320.3052368164062	-1040.721069335938	938.91796875	387.1858520507812	-1101.593139648438	921.0819702148438	454.513671875	-1166.540283203125	1115.821899414062	433.7401733398438	-1013.933776855469	757.0053100585938	370.275390625	-1000.543090820312	832.2965087890625	400.0104064941406	-1053.632446289062	824.1932983398438	452.8539733886719	-1201.530151367188	1726.588134765625	118.208137512207	-985.4033203125	1745.164672851562	135.7238006591797	-1035.688354492188	1750.678833007812	51.05887985229492	-1123.500244140625	1717.08837890625	239.4806823730469	-1145.409057617188	963.6201782226562	-31.30770111083984	-1100.096069335938	965.8611450195312	339.4675598144531	-1003.608825683594	1000.396240234375	256.5897827148438	-1025.467651367188	1012.868896484375	24.53553581237793	-1096.039184570312	519.14990234375	26.54622268676758	-1119.676025390625	655.4139404296875	-13.04386901855469	-1188.578369140625	39.94244003295898	38.05273056030273	-1171.619995117188	287.5249938964844	13.36251640319824	-970.289306640625	41.86299896240234	106.7240219116211	-1028.779663085938	52.57574462890625	120.9009780883789	-1065.458984375	42.57164001464844	20.76543045043945	-1259.39404296875	46.60979461669922	89.08505249023438	-1087.655639648438	530.14306640625	293.0045471191406	-1076.543090820312	797.765869140625	337.5269775390625	-1202.074462890625	47.83378601074219	281.7911376953125	-1111.672729492188	406.2006530761719	293.8902282714844	-972.6644287109375	47.79679870605469	227.1826934814453	-1038.419921875	51.03848266601562	199.6663360595703	-1052.005493164062	45.39618301391602	295.35546875	-1238.352294921875	63.46099853515625	255.4717102050781	
3	0.02	-1219.0439453125	1080.364135742188	246.9881134033203	-1234.132690429688	1069.873046875	83.24031066894531	-1232.756225585938	1129.241821289062	155.8562774658203	-1017.507202148438	1328.927734375	143.6434326171875	-1263.252807617188	1270.19482421875	153.6056823730469	-1226.76171875	1540.171020507812	139.2589874267578	-1063.615356445312	1454.380615234375	139.3291320800781	-1269.3115234375	1401.395751953125	220.7962799072266	-1246.20556640625	1497.068237304688	41.34627532958984	-1146.466064453125	1508.296875	-36.26531219482422	-1173.341918945312	1379.888916015625	-110.6944885253906	-1162.029174804688	1161.753295898438	-135.4067993164062	-1213.188232421875	1147.979858398438	-43.31897354125977	-1070.212036132812	909.4847412109375	-83.80030059814453	-1147.319702148438	895.0492553710938	-122.7331619262695	-1147.417358398438	1046.120971679688	-141.8742523193359	-1041.830322265625	725.439453125	-65.28915405273438	-1113.223022460938	805.5866088867188	-123.9204177856445	-1047.639038085938	816.5951538085938	-97.21872711181641	-1144.019775390625	1527.943481445312	311.4491577148438	-1154.785400390625	1458.494506835938	383.5025024414062	-1183.597412109375	1191.620727539062	415.7985229492188	-1183.416625976562	1161.498413085938	320.056640625	-1041.495727539062	938.751220703125	386.7963256835938	-1102.421997070312	920.9371948242188	454.1389465332031	-1167.1015625	1115.7744140625	433.4716186523438	-1015.266235351562	756.5696411132812	369.903564453125	-1001.489929199219	832.0552368164062	399.5790405273438	-1054.541870117188	823.959716796875	452.4197387695312	-1201.712646484375	1726.605590820312	118.0800323486328	-985.5925903320312	1745.192016601562	135.8702087402344	-1035.754272460938	1750.7099609375	51.12241744995117	-1123.857421875	1717.080200195312	239.4235687255859	-1145.753173828125	963.6140747070312	-31.41249847412109	-1100.446411132812	965.8245239257812	339.3942260742188	-1004.072937011719	1000.211547851562	256.5555725097656	-1025.815063476562	1012.840576171875	24.51680564880371	-1096.51806640625	519.1190185546875	26.50032615661621	-1120.242431640625	655.4215698242188	-13.09581851959229	-1188.59130859375	39.93122100830078	38.05990600585938	-1171.965087890625	287.5249633789062	13.37490081787109	-970.3009643554688	41.89426422119141	106.6895217895508	-1028.795166015625	52.61961364746094	120.858757019043	-1065.463989257812	42.56067657470703	20.75643157958984	-1259.406860351562	46.60039520263672	89.09622955322266	-1087.746337890625	530.1471557617188	292.9509582519531	-1076.799194335938	797.8218994140625	337.3777770996094	-1202.086791992188	47.82217025756836	281.7985229492188	-1111.707275390625	406.2054748535156	293.8304748535156	-972.8671875	48.28966903686523	227.4661560058594	-1038.427978515625	51.18541717529297	199.7773895263672	-1052.113159179688	45.49260711669922	295.4584045410156	-1243.872314453125	58.8427619934082	251.1298065185547	
4	0.03	-1219.437744140625	1080.342651367188	246.8607940673828	-1234.46728515625	1069.889892578125	83.14498901367188	-1233.186157226562	1129.29296875	155.6818542480469	-1017.786743164062	1328.858032226562	143.6153869628906	-1263.502685546875	1270.259033203125	153.4693450927734	-1226.867309570312	1540.19970703125	139.1905364990234	-1063.785522460938	1454.342651367188	139.2891235351562	-1269.478515625	1401.45458984375	220.6975708007812	-1246.306030273438	1497.1279296875	41.2445068359375	-1146.51025390625	1508.31982421875	-36.32791519165039	-1173.360595703125	1379.935302734375	-110.779899597168	-1162.178344726562	1161.796264648438	-135.5344543457031	-1213.4150390625	1148.05810546875	-43.48000717163086	-1070.7744140625	909.3634033203125	-84.07096099853516	-1147.86474609375	895.0774536132812	-123.0029830932617	-1147.699096679688	1046.166259765625	-142.0730285644531	-1043.011596679688	724.7509765625	-65.94878387451172	-1113.976684570312	805.5819702148438	-124.2577667236328	-1048.353637695312	816.42431640625	-97.60401153564453	-1144.208862304688	1527.934692382812	311.3948364257812	-1154.995727539062	1458.478881835938	383.4598693847656	-1184.1591796875	1191.602661132812	415.5292663574219	-1183.961181640625	1161.561401367188	319.7931518554688	-1042.42041015625	938.5208740234375	386.3855590820312	-1103.411499023438	920.7645263671875	453.7431335449219	-1167.738403320312	1115.721435546875	433.1906127929688	-1016.81689453125	756.0718994140625	369.4876708984375	-1002.651428222656	831.7494506835938	399.1065673828125	-1055.658081054688	823.6783447265625	451.9353942871094	-1201.906616210938	1726.625854492188	117.9447326660156	-985.7938232421875	1745.221923828125	136.0291900634766	-1035.825317382812	1750.735961914062	51.19506072998047	-1124.266235351562	1717.075561523438	239.3494567871094	-1146.158935546875	963.6006469726562	-31.52898979187012	-1100.8212890625	965.780029296875	339.3055419921875	-1004.561462402344	1000.030395507812	256.4964599609375	-1026.213256835938	1012.807006835938	24.44956970214844	-1097.076293945312	519.0897827148438	26.43111801147461	-1120.930419921875	655.4320678710938	-13.18108940124512	-1188.607543945312	39.92058944702148	38.06644821166992	-1172.368896484375	287.5292663574219	13.38225746154785	-970.3169555664062	41.93259429931641	106.6463775634766	-1028.807739257812	52.66989898681641	120.8136672973633	-1065.45703125	42.54186248779297	20.74925422668457	-1259.420776367188	46.58854675292969	89.10793304443359	-1087.837036132812	530.1575927734375	292.9148254394531	-1077.067749023438	797.8777465820312	337.1982421875	-1202.105346679688	47.80458831787109	281.8188171386719	-1111.745239257812	406.2112426757812	293.7826538085938	-973.0866088867188	48.82671356201172	227.7529754638672	-1038.446411132812	51.35979461669922	199.8979339599609	-1052.23291015625	45.6087646484375	295.5607299804688	-1248.980224609375	54.52918243408203	247.1251373291016	
